<?xml version="1.0" encoding="utf-8"?>
<!-- Generator: Adobe Illustrator 21.0.0, SVG Export Plug-In . SVG Version: 6.00 Build 0)  -->
<svg version="1.1" id="Calque_1" xmlns="http://www.w3.org/2000/svg" xmlns:xlink="http://www.w3.org/1999/xlink" x="0px" y="0px"
	 viewBox="0 0 800 480" style="enable-background:new 0 0 800 480;" xml:space="preserve">
<style type="text/css">
	.st0{fill:none;}
	.st1{fill:url(#SVGID_1_);stroke:#1D1D1B;}
	.st2{fill:#FFFFFF;stroke:#1D1D1B;}
	.st3{fill:url(#SVGID_2_);stroke:#1D1D1B;}
	.st4{fill:url(#SVGID_3_);stroke:#1D1D1B;}
	.arial_reg{font-family:'ArialMT';}
	.st6{font-size:24px;}
	.st7{font-size:30px;}
	.st8{font-size:17px;}
	.st9{enable-background:new    ;}
	.arial_bold{font-family:'Arial-BoldMT';}
	.st11{font-size:15px;}
	.st12{font-size:20px;}
	.st13{font-size:12px;}
	.st14{fill:none;stroke:#1D1D1B;stroke-width:2;}
	.st15{fill:none;stroke:#1D1D1B;}
</style>

<pattern  y="480" width="800" height="480" patternUnits="userSpaceOnUse" id="SVGID_4_" viewBox="0 -480 800 480" style="overflow:visible;">
	<g>
		<rect y="-480" class="st0" width="800" height="480"/>
		<g>
			<rect y="-480" class="st0" width="800" height="480"/>
		</g>
	</g>
</pattern>
<pattern  y="480" width="800" height="480" patternUnits="userSpaceOnUse" id="SVGID_5_" viewBox="0 -480 800 480" style="overflow:visible;">
	<g>
		<rect y="-480" class="st0" width="800" height="480"/>
		<g>
			<rect y="-480" class="st0" width="800" height="480"/>
		</g>
	</g>
</pattern>
<pattern  y="480" width="800" height="480" patternUnits="userSpaceOnUse" id="SVGID_6_" viewBox="0 -480 800 480" style="overflow:visible;">
	<g>
		<rect y="-480" class="st0" width="800" height="480"/>
		<g>
			<rect y="-480" class="st0" width="800" height="480"/>
		</g>
	</g>
</pattern>
<pattern  id="SVGID_1_" xlink:href="#SVGID_4_" patternTransform="matrix(0.9447 0 0 1.054 -9.6972 18344.8262)">
</pattern>
<polygon id="background_rectangle_groceries" class="st1" points="773.9,449.1 604,449.1 604,222.5 604,135 773.9,135 "/>
<rect x="612.1" y="144.1" class="st2" width="172.9" height="314.9"/>
<pattern  id="SVGID_2_" xlink:href="#SVGID_5_" patternTransform="matrix(0.8446 0 0 0.9166 -2044.9596 14803.0986)">
</pattern>
<polygon id="background_rectangle_events" class="st3" points="168.1,433 15,433 15,218 15,135 168.1,135 "/>
<rect x="22.3" y="143.6" class="st2" width="153.1" height="315.4"/>
<pattern  id="SVGID_3_" xlink:href="#SVGID_6_" patternTransform="matrix(1.0311 0 0 -0.8823 17.9347 -32350.5273)">
</pattern>
<polygon id="background_rectangle_weather" class="st4" points="542.2,237.4 215.2,237.4 215.2,163.5 215.2,135 542.2,135 "/>
<rect x="224.1" y="142.9" class="st2" width="329.9" height="101.6"/>

<text id="calendar_events" transform="matrix(1 0 0 1 54.8784 172.7827)" class="arial_reg st6">Events</text>

<text id="current_date" transform="matrix(1 0 0 1 275.615 30.8817)" class="arial_bold st12">Mercredi 21 août 2023, 8h</text>
<text id="current_temp" transform="matrix(1 0 0 1 445 86.4408)" class="arial_bold st7">31°C</text>
<text id="current_humidity_title" transform="matrix(1 0 0 1 445 114.1753)" class="arial_reg st8">Humidité: </text>
<text id="current_humidity" transform="matrix(1 0 0 1 520 114.4249)" class="arial_bold st8">78%</text>
<text id="aqi_next_period_1_title" transform="matrix(1 0 0 1 234.6152 166.7001)" class="st8 arial_reg">IQA aujourd'hui</text>
<text id="aqi_next_period_1_value" transform="matrix(1 0 0 1 235.1748 187.8498)" class="arial_bold st11">5 (Élevé)</text>
<text id="aqi_next_period_2_title" transform="matrix(1 0 0 1 234.6151 214.4122)" class="arial_reg st8 ">IQA demain</text>
<text id="aqi_next_period_2_value" transform="matrix(1 0 0 1 235.1749 233.8001)" class="arial_bold st11">3 (Faible) </text>
<text id="sunrise" transform="matrix(1 0 0 1 499.6889 178.0063)" class="arial_bold st8">07:30</text>
<text id="sunset" transform="matrix(1 0 0 1 499.6891 225.4003)" class="arial_bold st8">21:30</text>
<text id="period_1_title" transform="matrix(1 0 0 1 203.6151 276)" class="arial_bold st12">Ce matin</text>
<text id="period_1_forecast" transform="matrix(1 0 0 1 203.6151 291)" class="arial_reg st13">Forecast1</text>
<text id="period_1_precip" transform="matrix(1 0 0 1 468.3906 336.6071)" class="arial_bold st8">50% </text>
<text id="period_1_temp" transform="matrix(1 0 0 1 526.4034 336.6074)" class="arial_bold st8">25°C</text>
<text id="period_2_title" transform="matrix(1 0 0 1 203.6151 385)" class="arial_bold st12">Ce soir</text>
<text id="period_2_forecast" transform="matrix(1 0 0 1 203.6151 400)" class="arial_reg st13">Forecast2</text>
<text id="period_2_precip" transform="matrix(1 0 0 1 468.4435 447.8072)" class="arial_bold st8">30% </text>
<text id="period_2_temp" transform="matrix(1 0 0 1 526.4563 447.8074)" class="arial_bold st8">15°C</text>


<text id="grocery_list" transform="matrix(1 0 0 1 679.8882 175.988)" class="arial_reg st6">List</text>

<g id = "scale_groceries_icon">
	<g>
		<g>
			<path d="M724.7,62h-52.3c-1.2,0-2,0.9-2,2v1.7c0,5.3,4.4,9.7,9.7,9.7h8.4v2H680c-1.9,0-3.5,1.5-3.6,3.4l-3,37.2
				c-0.1,1,0.3,2,0.9,2.8c0.7,0.7,1.7,1.2,2.7,1.2h43c1,0,2-0.4,2.7-1.2s1-1.8,0.9-2.8l-3-37.2c-0.1-1.9-1.8-3.4-3.6-3.4h-8.4v-2
				h8.4c5.3,0,9.7-4.3,9.7-9.7V64C726.8,62.9,725.8,62,724.7,62L724.7,62z M716.6,81.6l2.9,36.3h-41.9l2.9-36.3L716.6,81.6z
				 M692.6,77.5v-2h11.9v2H692.6z M717.1,71.3h-10.4h-16.2H680c-2.9,0-5.3-2.2-5.5-5.1h48.2C722.4,69.1,720,71.3,717.1,71.3z"/>
		</g>
	</g>
	<g>
		<g>
			<path d="M698.5,95.1c-9,0-16.2,7.3-16.2,16.2c0,1.2,0.9,2,2,2h28.3c1.2,0,2-0.9,2-2C714.7,102.3,707.5,95.1,698.5,95.1z
				 M699.6,109.1l-3.9-4.9c-0.7-0.9-2-1-2.9-0.3s-1,2-0.3,2.9l1.8,2.3h-7.7c1-5.7,6-10,11.9-10s10.9,4.3,11.9,10H699.6L699.6,109.1z
				"/>
		</g>
	</g>
</g>
<g id="calendar_icon">
	<g id="Dribbble-Light-Preview" transform="translate(-60.000000, -2319.000000)">
		<g id="icons" transform="translate(56.000000, 160.000000)">
			<path id="calendar-_x5B__x23_1322_x5D_" d="M119.6,2245.1H71.7v-9.1c0-1.6,1.3-2.9,2.9-2.9h3.1v6h6v-6h23.9v6h6v-6h3
				c1.7,0,3,1.3,3,3V2245.1z M119.6,2272.1c0,1.6-1.3,3-3,3H74.7c-1.6,0-3-1.4-3-3v-21h47.9V2272.1z M65.9,2274.3
				c0,3.3,2.8,6.8,6.1,6.8h47.9c3.3,0,5.7-3.1,5.7-6.8c0-1.2-0.1-37.2-0.1-39.2c0-6.2-0.8-8.1-12-8.1v-6h-6v6H83.6v-6h-6v6h-6
				c-3.3,0-6,2.7-6,6L65.9,2274.3z"/>
		</g>
	</g>
</g>
<g id="sunset_icon">
	<rect x="455.6" y="228.4" width="30.3" height="2.2"/>
	<path d="M470.8,220.8c2.4,0,4.3,1.9,4.3,4.3h2.2c0-3.6-2.9-6.5-6.5-6.5s-6.5,2.9-6.5,6.5h2.2C466.5,222.7,468.4,220.8,470.8,220.8z
		"/>
	<rect x="480.5" y="223" width="5.4" height="2.2"/>
	<rect x="476.9" y="215.3" transform="matrix(0.7071 -0.7071 0.7071 0.7071 -12.5805 402.5106)" width="5.4" height="2.2"/>
	<polygon points="474.7,209.5 471.8,212.3 471.8,203.5 469.7,203.5 469.7,212.3 466.9,209.5 465.4,211 470.8,216.5 476.2,211 	"/>
	<rect x="460.8" y="213.6" transform="matrix(0.7071 -0.7071 0.7071 0.7071 -17.6639 389.9713)" width="2.2" height="5.4"/>
	<rect x="455.6" y="223" width="5.4" height="2.2"/>
	<rect id="_Transparent_Rectangle_" x="453.4" y="199.1" class="st0" width="34.7" height="34.7"/>
</g>
<g id="sunrise_icon">
	<rect x="456.1" y="181" width="29.3" height="2.1"/>
	<path d="M470.7,173.6c2.3,0,4.2,1.9,4.2,4.2h2.1c0-3.5-2.8-6.3-6.3-6.3s-6.3,2.8-6.3,6.3h2.1C466.5,175.5,468.4,173.6,470.7,173.6z
		"/>
	<rect x="480.2" y="175.7" width="5.3" height="2.1"/>
	<rect x="476.7" y="168.2" transform="matrix(0.7071 -0.7071 0.7071 0.7071 20.7254 388.4721)" width="5.2" height="2.1"/>
	<polygon points="470.7,156.8 465.5,162.1 466.9,163.6 469.7,160.8 469.7,161 469.7,168.4 471.8,168.4 471.8,161 471.8,160.8 
		474.5,163.6 476,162.1 	"/>
	<rect x="461.1" y="166.7" transform="matrix(0.7071 -0.7071 0.7071 0.7071 15.6464 376.3534)" width="2.1" height="5.2"/>
	<rect x="456.1" y="175.7" width="5.3" height="2.1"/>
	<rect id="_Transparent_Rectangle__1_" x="454" y="152.7" class="st0" width="33.6" height="33.6"/>
</g>
<rect x="198" y="254.8" class="st14" width="374.5" height="97"/>
<rect x="198" y="362.6" class="st15" width="374.5" height="97"/>
<line class="st15" x1="441.9" y1="351.8" x2="441.9" y2="254.8"/>
<line class="st15" x1="441.9" y1="459.6" x2="441.9" y2="362.6"/>


<path id = "current_weather_icon" d="M318.1,59.8c12-1.7,23.5,4.9,28.2,16.1c-0.2,0-0.4,0.1-0.5,0.1c-2.2,0.6-3.5,2.8-2.9,5s2.8,3.5,5,2.9
	c8-2.1,16.2,2.6,18.4,10.6c0.7,2.7,0.7,5.5-0.1,8.2c-1.9,6.3-7.7,10.6-14.3,10.6h-77.4c1.9-10.9,11-19,22-19.7c2.3-0.1,4-2,3.9-4.3
	s-2-4-4.3-3.9H296c-0.2,0-0.5,0-0.7,0.1C295.5,72.5,305.2,61.6,318.1,59.8z M287.1,87.3c-0.7-19.2,14.3-35.3,33.5-35.9
	c15.5-0.5,29.5,9.3,34.3,24c6.9,0.9,12.9,4.9,16.6,10.7c6.8,10.9,3.4,25.1-7.4,31.9c-3.7,2.3-7.9,3.5-12.2,3.5h-81.8
	c-2.3,0-4.1-1.8-4.1-4.1c0-0.1,0-0.1,0-0.2s0-0.1,0-0.2C266.1,103.7,274.5,91.9,287.1,87.3z"/>
<path id = "period_1_icon" d="M506.7,270.8c7.2-1,14,3,16.9,9.7c-0.1,0-0.2,0.1-0.3,0.1c-1.3,0.3-2.1,1.6-1.8,3c0.3,1.3,1.6,2.1,3,1.8
	c4.8-1.2,9.7,1.5,11.1,6.4c0.4,1.6,0.4,3.3-0.1,4.9c-1.1,3.7-4.6,6.4-8.6,6.4h-46.3c1.1-6.6,6.6-11.4,13.2-11.8
	c1.4-0.1,2.4-1.2,2.3-2.5c-0.1-1.4-1.2-2.4-2.5-2.3h-0.1c-0.1,0-0.3,0-0.4,0.1C493.2,278.5,499,271.9,506.7,270.8z M488.2,287.4
	c-0.4-11.5,8.6-21.2,20.1-21.5c9.3-0.3,17.7,5.6,20.5,14.4c4.2,0.5,7.7,3,10,6.4c4.1,6.6,2.1,15-4.4,19.1c-2.2,1.4-4.7,2.1-7.4,2.1
	h-49c-1.4,0-2.4-1.1-2.4-2.4c0-0.1,0-0.1,0-0.1v-0.1C475.6,297.2,480.6,290.2,488.2,287.4z"/>
<path id = "period_2_icon" d="M506.7,380.5c7.2-1,14,3,16.9,9.7c-0.1,0-0.2,0.1-0.3,0.1c-1.3,0.3-2.1,1.6-1.8,3c0.3,1.3,1.6,2.1,3,1.8
	c4.8-1.2,9.7,1.5,11.1,6.4c0.4,1.6,0.4,3.3-0.1,4.9c-1.1,3.7-4.6,6.4-8.6,6.4h-46.3c1.1-6.6,6.6-11.4,13.2-11.8
	c1.4-0.1,2.4-1.2,2.3-2.5c-0.1-1.4-1.2-2.4-2.5-2.3h-0.1c-0.1,0-0.3,0-0.4,0.1C493.2,388.2,499,381.6,506.7,380.5z M488.2,397.1
	c-0.4-11.5,8.6-21.2,20.1-21.5c9.3-0.3,17.7,5.6,20.5,14.4c4.2,0.5,7.7,3,10,6.4c4.1,6.6,2.1,15-4.4,19.1c-2.2,1.4-4.7,2.1-7.4,2.1
	h-49c-1.4,0-2.4-1.1-2.4-2.4c0-0.1,0-0.1,0-0.1v-0.1C475.6,406.8,480.6,399.8,488.2,397.1z"/>
<path id = "period_1_umbrella_icon" d="M456.2,322.3c0-0.2,0.1-0.3,0.2-0.4c0.1-0.1,0.2-0.2,0.4-0.2s0.3,0.1,0.4,0.2l0,0c0.1,0.1,0.2,0.2,0.2,0.4v0.8
	c0.9,0.1,1.8,0.2,2.6,0.5c0.9,0.3,1.7,0.8,2.4,1.4c0.8,0.6,1.4,1.3,1.8,2.1c0.4,0.8,0.7,1.7,0.8,2.6l0,0c0,0.2-0.1,0.3-0.2,0.4
	c-0.1,0.1-0.2,0.2-0.4,0.2l0,0l0,0h-6.9v5.2c0,0,0,0,0,0.1c0,0.6-0.2,1.1-0.4,1.4c-0.2,0.5-0.6,0.8-1.1,1c-0.2,0.1-0.3,0.2-0.5,0.2
	c-0.2,0-0.4,0.1-0.5,0.1s-0.4,0-0.5-0.1c-0.2-0.1-0.4-0.1-0.5-0.2c-0.5-0.2-0.8-0.5-1.1-1.1c-0.2-0.5-0.4-1-0.4-1.6
	c0-0.2,0.1-0.3,0.2-0.4l0,0c0.1-0.1,0.2-0.2,0.4-0.2c0.2,0,0.3,0.1,0.4,0.2l0,0c0.1,0.1,0.2,0.2,0.2,0.4c0,0.5,0.1,0.8,0.2,1.1
	c0.2,0.3,0.4,0.5,0.7,0.7c0.1,0.1,0.2,0.1,0.3,0.1c0.1,0,0.2,0,0.3,0c0.1,0,0.2,0,0.3,0s0.2-0.1,0.3-0.1c0.2-0.1,0.5-0.3,0.6-0.5
	s0.2-0.5,0.2-0.9l0,0v-5.2h-6.9c-0.2,0-0.3-0.1-0.4-0.2c-0.1-0.1-0.2-0.2-0.2-0.4l0,0l0,0c0.1-0.9,0.3-1.8,0.8-2.5
	c0.5-0.8,1.1-1.5,1.8-2.1c0.7-0.5,1.5-1,2.4-1.4c0.8-0.3,1.7-0.5,2.6-0.5L456.2,322.3L456.2,322.3z M461.5,325.7
	c-0.6-0.5-1.4-0.9-2.2-1.2c-0.8-0.3-1.7-0.5-2.6-0.5s-1.8,0.2-2.6,0.5c-0.8,0.3-1.6,0.7-2.2,1.2c-0.6,0.5-1.1,1.1-1.4,1.7l0,0
	c-0.3,0.5-0.5,1.1-0.6,1.8h13.7c-0.1-0.6-0.3-1.2-0.6-1.8l0,0C462.6,326.8,462,326.2,461.5,325.7L461.5,325.7z"/>
<path id = "period_2_umbrella_icon" d="M456.2,433.5c0-0.2,0.1-0.3,0.2-0.4c0.1-0.1,0.2-0.2,0.4-0.2s0.3,0.1,0.4,0.2l0,0c0.1,0.1,0.2,0.2,0.2,0.4v0.8
	c0.9,0.1,1.8,0.2,2.6,0.5c0.9,0.3,1.7,0.8,2.4,1.4c0.8,0.6,1.4,1.3,1.8,2.1c0.4,0.8,0.7,1.7,0.8,2.6l0,0c0,0.2-0.1,0.3-0.2,0.4
	c-0.1,0.1-0.2,0.2-0.4,0.2l0,0l0,0h-6.9v5.2c0,0,0,0,0,0.1c0,0.6-0.2,1.1-0.4,1.4c-0.2,0.5-0.6,0.8-1.1,1c-0.2,0.1-0.3,0.2-0.5,0.2
	c-0.2,0-0.4,0.1-0.5,0.1c-0.2,0-0.4,0-0.5-0.1c-0.2-0.1-0.4-0.1-0.5-0.2c-0.5-0.2-0.8-0.5-1.1-1.1c-0.2-0.5-0.4-1-0.4-1.6
	c0-0.2,0.1-0.3,0.2-0.4l0,0c0.1-0.1,0.2-0.2,0.4-0.2c0.2,0,0.3,0.1,0.4,0.2l0,0c0.1,0.1,0.2,0.2,0.2,0.4c0,0.5,0.1,0.8,0.2,1.1
	c0.2,0.3,0.4,0.5,0.7,0.7c0.1,0.1,0.2,0.1,0.3,0.1s0.2,0,0.3,0s0.2,0,0.3,0s0.2-0.1,0.3-0.1c0.2-0.1,0.5-0.3,0.6-0.5
	s0.2-0.5,0.2-0.9l0,0v-5.2h-6.9c-0.2,0-0.3-0.1-0.4-0.2c-0.1-0.1-0.2-0.2-0.2-0.4l0,0l0,0c0.1-0.9,0.3-1.8,0.8-2.5
	c0.5-0.8,1.1-1.5,1.8-2.1c0.7-0.5,1.5-1,2.4-1.4c0.8-0.3,1.7-0.5,2.6-0.5L456.2,433.5L456.2,433.5z M461.6,436.9
	c-0.6-0.5-1.4-0.9-2.2-1.2s-1.7-0.5-2.6-0.5s-1.8,0.2-2.6,0.5c-0.8,0.3-1.6,0.7-2.2,1.2c-0.6,0.5-1.1,1.1-1.4,1.7l0,0
	c-0.3,0.5-0.5,1.1-0.6,1.8h13.7c-0.1-0.6-0.3-1.2-0.6-1.8l0,0C462.6,438,462.1,437.4,461.6,436.9L461.6,436.9z"/>

<!-- Arrows face down by default, they can be subsituted by arrows facing p-->
<polygon id="period_1_arrow" points="517,338.2 511.5,331.4 515.6,331.4 515.6,321.8 518.3,321.8 518.3,331.4 522.4,331.4 "/>
<polygon id = "period_2_arrow" points="518.1,443.1 518.1,434.3 515.6,434.3 515.6,443.1 511.8,443.1 516.9,449.4 521.9,443.1"/>

<!-- Up arrows -->
<!-- <polygon id="period_2_arrow_up" points="518.1,434.3 518.1,443.1 515.6,443.1 515.6,434.3 511.8,434.3 516.9,427.9 521.9,434.3"/> -->
<!-- <polygon id = "period_1_arrow_up" points="517,321.8 511.5,328.6 515.6,328.6 515.6,338.2 518.3,338.2 518.3,328.6 522.4,328.6 "/> -->
</svg>
